<?xml version="1.0" encoding="UTF-8" standalone="no"?>
<!-- Created with Inkscape (http://www.inkscape.org/) -->

<svg
   xmlns:dc="http://purl.org/dc/elements/1.1/"
   xmlns:cc="http://creativecommons.org/ns#"
   xmlns:rdf="http://www.w3.org/1999/02/22-rdf-syntax-ns#"
   xmlns:svg="http://www.w3.org/2000/svg"
   xmlns="http://www.w3.org/2000/svg"
   xmlns:sodipodi="http://sodipodi.sourceforge.net/DTD/sodipodi-0.dtd"
   xmlns:inkscape="http://www.inkscape.org/namespaces/inkscape"
   width="114.02097mm"
   height="114.08916mm"
   viewBox="0 0 114.02097 114.08916"
   version="1.1"
   id="svg1264"
   inkscape:version="0.92.3 (2405546, 2018-03-11)"
   sodipodi:docname="logo.svg">
  <defs
     id="defs1258" />
  <sodipodi:namedview
     id="base"
     pagecolor="#ffffff"
     bordercolor="#666666"
     borderopacity="1.0"
     inkscape:pageopacity="0.0"
     inkscape:pageshadow="2"
     inkscape:zoom="1.4"
     inkscape:cx="24.185485"
     inkscape:cy="247.52699"
     inkscape:document-units="mm"
     inkscape:current-layer="layer1"
     showgrid="false"
     fit-margin-top="0"
     fit-margin-left="0"
     fit-margin-right="0"
     fit-margin-bottom="0"
     inkscape:window-width="3440"
     inkscape:window-height="1372"
     inkscape:window-x="0"
     inkscape:window-y="40"
     inkscape:window-maximized="1" />
  <metadata
     id="metadata1261">
    <rdf:RDF>
      <cc:Work
         rdf:about="">
        <dc:format>image/svg+xml</dc:format>
        <dc:type
           rdf:resource="http://purl.org/dc/dcmitype/StillImage" />
        <dc:title></dc:title>
      </cc:Work>
    </rdf:RDF>
  </metadata>
  <g
     inkscape:label="Layer 1"
     inkscape:groupmode="layer"
     id="layer1"
     transform="translate(-47.310944,-67.598277)">
    <path
       style="fill:#1db954;fill-opacity:1;stroke:none;stroke-width:0.46478382;stroke-opacity:1"
       d="M 104.28732,67.598277 A 57.044571,57.044571 0 0 0 47.310944,123.27911 l 0.92141,0.01 c 8.80602,0.0917 8.95591,0.10409 10.4743,0.87956 3.19428,1.63136 5.32492,5.00231 7.8977,12.49587 1.89685,5.52484 1.76893,5.26584 2.5404,5.15575 0.97539,-0.13917 1.81631,-2.93822 3.36105,-11.19002 2.13421,-11.40069 3.1449,-14.52359 5.57123,-17.21237 1.48116,-1.64134 2.73608,-2.21125 4.86894,-2.21125 3.32703,0 5.25669,2.04695 7.22747,7.6662 0.94048,2.68155 1.64549,5.91748 4.00028,18.3689 1.63248,8.63206 2.99877,12.67267 3.96047,11.71091 1.02121,-1.02116 2.165246,-8.77996 3.303166,-22.40793 1.82864,-21.90009 3.26826,-28.816164 6.84919,-32.894624 1.34112,-1.52745 2.45866,-2.05104 4.37597,-2.05104 2.11476,0 3.38682,0.56861 4.81726,2.15387 3.23893,3.589401 4.67667,9.067764 6.57326,25.043444 1.54091,12.97977 2.50851,17.71002 3.62252,17.71002 0.83761,0 1.76794,-2.45155 3.51917,-9.27333 2.80887,-10.94176 4.47966,-13.49634 8.82581,-13.49634 2.11262,0 3.75377,0.74893 5.16609,2.35749 1.16356,1.32522 1.54427,2.03028 3.56669,6.60424 0.83355,1.88507 1.89744,3.92781 2.36421,4.53977 1.39176,1.82472 2.09759,1.98559 9.98493,1.99266 a 57.044571,57.044571 0 0 0 0.22945,-4.58785 57.044571,57.044571 0 0 0 -57.04459,-57.044573 z m 8.53384,31.775831 c -0.5434,0.054 -1.07291,1.297192 -1.69394,3.767732 -1.32974,5.28978 -1.91664,10.06045 -3.21014,26.09039 -0.76631,9.49645 -1.61943,15.80295 -2.68409,19.84065 -1.15014,4.36206 -2.74516,7.19736 -4.58317,8.14782 -1.286056,0.66506 -4.044096,0.60894 -5.217256,-0.10644 v -5.3e-4 c -3.44908,-2.10341 -5.70759,-7.38891 -7.7587,-18.15909 -3.17201,-16.65579 -4.00732,-19.96723 -4.98935,-19.77811 -0.79624,0.15333 -1.80213,3.32941 -2.90785,9.18289 -2.38924,12.64836 -3.28311,15.74874 -5.30614,18.40199 -1.53215,2.00945 -2.88144,2.71094 -5.21517,2.71094 -4.30464,0 -6.40964,-2.57998 -9.39478,-11.51506 -0.70252,-2.10275 -1.7042,-4.56726 -2.2257,-5.47666 -1.51074,-2.63446 -1.82427,-2.75328 -10.13531,-2.86494 a 57.044571,57.044571 0 0 0 56.787756,52.07175 57.044571,57.044571 0 0 0 55.93302,-45.8773 l -8.49561,-0.0946 -1.80351,-0.88572 c -2.69404,-1.32294 -4.41291,-3.45164 -6.81768,-8.4434 -1.1312,-2.34816 -2.19072,-4.43916 -2.35437,-4.64625 -0.62182,-0.78684 -1.16189,0.0456 -1.95079,3.00707 -0.44863,1.68413 -1.3093,4.93562 -1.91255,7.2254 -2.26867,8.61169 -5.11055,12.12379 -9.8118,12.12379 -2.2224,0 -3.50862,-0.69471 -4.74544,-2.56365 -2.17998,-3.29417 -3.18939,-7.72462 -4.76353,-20.89952 -1.4678,-12.28484 -1.83187,-14.40426 -3.20085,-18.65001 -0.57346,-1.77854 -1.06357,-2.656761 -1.54305,-2.609152 z"
       id="path869-4"
       inkscape:connector-curvature="0" />
  </g>
</svg>
